<svg height="512" viewBox="0 0 50 58" width="512" xmlns="http://www.w3.org/2000/svg"><g id="Page-1" fill="none" fill-rule="evenodd"><g id="009---Sugar" fill-rule="nonzero"><path id="Shape" d="m30.18 9.02h.11c1.8112598.1505889 3.2058635 1.6624956 3.21 3.48.0093024 1.9291303 1.5708697 3.4906976 3.5 3.5h2c3.3137085 0 6 2.6862915 6 6l-20 3-20-3c.00495634-3.3116533 2.68834666-5.9950437 6-6h2c1.9329966 0 3.5-1.5670034 3.5-3.5-.0018579-.9281576.3692701-1.8181442 1.03-2.47.5795347-.59075219 1.3546325-.94985713 2.18-1.01z" fill="#f3d55b"/><path id="Shape" d="m15 26h32v27c0 2.7614237-2.2385763 5-5 5h-34c-2.76142375 0-5-2.2385763-5-5v-27z" fill="#5d4c72"/><path id="Shape" d="m50 25c0 1.6568542-1.3431458 3-3 3h-44c-1.65685425 0-3-1.3431458-3-3s1.34314575-3 3-3h44c1.6568542 0 3 1.3431458 3 3z" fill="#955ba5"/><path id="Shape" d="m31 6c0 3.3137085-2.6862915 6-6 6s-6-2.6862915-6-6 2.6862915-6 6-6 6 2.6862915 6 6z" fill="#fb7b76"/><g fill="#fff"><path id="Shape" d="m23 7c-.5522847 0-1-.44771525-1-1 0-1.65685425 1.3431458-3 3-3 .5522847 0 1 .44771525 1 1s-.4477153 1-1 1-1 .44771525-1 1c0 .26521649-.1053568.5195704-.2928932.70710678s-.4418903.29289322-.7071068.29289322z"/><path id="Shape" d="m7 35h36c.5522847 0 1-.4477153 1-1s-.4477153-1-1-1h-36c-.55228475 0-1 .4477153-1 1s.44771525 1 1 1z"/><path id="Shape" d="m43 50h-36c-.55228475 0-1 .4477153-1 1s.44771525 1 1 1h36c.5522847 0 1-.4477153 1-1s-.4477153-1-1-1z"/><path id="Shape" d="m15 37c-.5522847 0-1 .4477153-1 1v7c0 1.6568542 1.3431458 2.9999999 3 2.9999999s3-1.3431457 3-2.9999999v-7c0-.5522847-.4477153-1-1-1s-1 .4477153-1 1v7c0 .5522847-.4477153 1-1 1s-1-.4477153-1-1v-7c0-.5522847-.4477153-1-1-1z"/><path id="Shape" d="m25 39c.5522847 0 1 .4477153 1 1s.4477153 1 1 1 1-.4477153 1-1c0-1.6568542-1.3431458-3-3-3s-3 1.3431458-3 3v5c0 1.6568542 1.3431458 3 3 3s3-1.3431458 3-3v-1c.5522847 0 1-.4477153 1-1s-.4477153-1-1-1h-2c-.5522847 0-1 .4477153-1 1s.4477153 1 1 1v1c0 .5522847-.4477153 1-1 1s-1-.4477153-1-1v-5c0-.5522847.4477153-1 1-1z"/><path id="Shape" d="m35 48c.5522847 0 1-.4477153 1-1v-7c0-1.6568542-1.3431458-3-3-3s-3 1.3431458-3 3v7c0 .5522847.4477153 1 1 1s1-.4477153 1-1v-3h2v3c0 .5522847.4477153 1 1 1zm-3-6v-2c0-.5522847.4477153-1 1-1s1 .4477153 1 1v2z"/><path id="Shape" d="m40.5 37h-1.5c-.5522847 0-1 .4477153-1 1v9c0 .5522847.4477153 1 1 1s1-.4477153 1-1v-3h.382l1.723 3.447c.2468713.4942949.8477051.6948713 1.342.448s.6948713-.8477051.448-1.342l-1.547-3.093c1.3273719-.8228214 1.9470223-2.4269487 1.5174952-3.9284339-.429527-1.5014853-1.8037852-2.5352189-3.3654952-2.5315661zm-.5 2h.5c.8284271 0 1.5.6715729 1.5 1.5s-.6715729 1.5-1.5 1.5h-.5z"/><path id="Shape" d="m9 46c-.55228475 0-1-.4477153-1-1s-.44771525-1-1-1-1 .4477153-1 1c.00000003 1.6568542 1.34314578 2.9999999 3 2.9999999 1.6568542 0 3-1.3431457 3-2.9999999v-.5c0-1.6568542-1.3431458-3-3-3-.55228475 0-1-.4477153-1-1v-.5c0-.5522847.44771525-1 1-1s1 .4477153 1 1 .4477153 1 1 1 1-.4477153 1-1c0-1.6568542-1.3431458-2.9999999-3-2.9999999-1.65685422 0-2.99999997 1.3431457-3 2.9999999v.5c0 1.6568542 1.34314575 3 3 3 .55228475 0 1 .4477153 1 1v.5c0 .5522847-.44771525 1-1 1z"/><path id="Shape" d="m16.931 19.886c-.4468521.0000971-.8395346-.2962789-.9619568-.7260342s.0551325-.8885718.4349568-1.1239658c1.5089555-.933367 2.5743097-2.4393707 2.952-4.173.1154275-.5401345.6468655-.8844275 1.187-.769s.8844275.6468655.769 1.187c-.4926208 2.2664446-1.8846731 4.2356013-3.857 5.456-.1575116.0972032-.33891.148784-.524.149z"/></g></g></g></svg>